<?xml version="1.0" encoding="UTF-8" standalone="no"?>
<!-- Created with Inkscape (http://www.inkscape.org/) -->

<svg
   xmlns:dc="http://purl.org/dc/elements/1.1/"
   xmlns:cc="http://creativecommons.org/ns#"
   xmlns:rdf="http://www.w3.org/1999/02/22-rdf-syntax-ns#"
   xmlns:svg="http://www.w3.org/2000/svg"
   xmlns="http://www.w3.org/2000/svg"
   xmlns:sodipodi="http://sodipodi.sourceforge.net/DTD/sodipodi-0.dtd"
   xmlns:inkscape="http://www.inkscape.org/namespaces/inkscape"
   width="744.09448819"
   height="1052.3622047"
   id="svg2"
   version="1.1"
   inkscape:version="0.48.4 r9939"
   sodipodi:docname="New document 1">
  <defs
     id="defs4" />
  <sodipodi:namedview
     id="base"
     pagecolor="#ffffff"
     bordercolor="#666666"
     borderopacity="1.0"
     inkscape:pageopacity="0.0"
     inkscape:pageshadow="2"
     inkscape:zoom="1.979899"
     inkscape:cx="322.73989"
     inkscape:cy="613.93733"
     inkscape:document-units="px"
     inkscape:current-layer="layer1"
     showgrid="false"
     inkscape:window-width="1366"
     inkscape:window-height="733"
     inkscape:window-x="0"
     inkscape:window-y="0"
     inkscape:window-maximized="1" />
  <metadata
     id="metadata7">
    <rdf:RDF>
      <cc:Work
         rdf:about="">
        <dc:format>image/svg+xml</dc:format>
        <dc:type
           rdf:resource="http://purl.org/dc/dcmitype/StillImage" />
        <dc:title></dc:title>
      </cc:Work>
    </rdf:RDF>
  </metadata>
  <g
     inkscape:label="Layer 1"
     inkscape:groupmode="layer"
     id="layer1">
    <rect
       style="fill:#000080"
       id="rect2985"
       width="317.1879"
       height="183.84776"
       x="186.87822"
       y="368.48892" />
    <path
       transform="matrix(2.2222223,0,0,2.2222223,66.221119,-671.87935)"
       sodipodi:type="arc"
       style="fill:#b3b3b3"
       id="path2989-9"
       sodipodi:cx="65.659912"
       sodipodi:cy="481.12091"
       sodipodi:rx="4.5456862"
       sodipodi:ry="4.5456862"
       d="m 70.205598,481.12091 a 4.5456862,4.5456862 0 1 1 -9.091372,0 4.5456862,4.5456862 0 1 1 9.091372,0 z" />
    <path
       transform="matrix(2.2222223,0,0,2.2222223,65.716037,-632.98848)"
       sodipodi:type="arc"
       style="fill:#b3b3b3"
       id="path2989-9-0"
       sodipodi:cx="65.659912"
       sodipodi:cy="481.12091"
       sodipodi:rx="4.5456862"
       sodipodi:ry="4.5456862"
       d="m 70.205598,481.12091 a 4.5456862,4.5456862 0 1 1 -9.091372,0 4.5456862,4.5456862 0 1 1 9.091372,0 z" />
    <path
       transform="matrix(2.2222223,0,0,2.2222223,64.705885,-546.11536)"
       sodipodi:type="arc"
       style="fill:#b3b3b3"
       id="path2989-9-3"
       sodipodi:cx="65.659912"
       sodipodi:cy="481.12091"
       sodipodi:rx="4.5456862"
       sodipodi:ry="4.5456862"
       d="m 70.205598,481.12091 a 4.5456862,4.5456862 0 1 1 -9.091372,0 4.5456862,4.5456862 0 1 1 9.091372,0 z" />
    <path
       transform="matrix(2.2222223,0,0,2.2222223,66.221113,-589.55193)"
       sodipodi:type="arc"
       style="fill:#b3b3b3"
       id="path2989-9-35"
       sodipodi:cx="65.659912"
       sodipodi:cy="481.12091"
       sodipodi:rx="4.5456862"
       sodipodi:ry="4.5456862"
       d="m 70.205598,481.12091 a 4.5456862,4.5456862 0 1 1 -9.091372,0 4.5456862,4.5456862 0 1 1 9.091372,0 z" />
    <path
       transform="matrix(2.2222223,0,0,2.2222223,107.88991,-671.62683)"
       sodipodi:type="arc"
       style="fill:#b3b3b3"
       id="path2989-9-4"
       sodipodi:cx="65.659912"
       sodipodi:cy="481.12091"
       sodipodi:rx="4.5456862"
       sodipodi:ry="4.5456862"
       d="m 70.205598,481.12091 a 4.5456862,4.5456862 0 1 1 -9.091372,0 4.5456862,4.5456862 0 1 1 9.091372,0 z" />
    <path
       transform="matrix(2.2222223,0,0,2.2222223,107.38483,-632.73593)"
       sodipodi:type="arc"
       style="fill:#b3b3b3"
       id="path2989-9-0-4"
       sodipodi:cx="65.659912"
       sodipodi:cy="481.12091"
       sodipodi:rx="4.5456862"
       sodipodi:ry="4.5456862"
       d="m 70.205598,481.12091 a 4.5456862,4.5456862 0 1 1 -9.091372,0 4.5456862,4.5456862 0 1 1 9.091372,0 z" />
    <path
       transform="matrix(2.2222223,0,0,2.2222223,106.37467,-545.86283)"
       sodipodi:type="arc"
       style="fill:#b3b3b3"
       id="path2989-9-3-0"
       sodipodi:cx="65.659912"
       sodipodi:cy="481.12091"
       sodipodi:rx="4.5456862"
       sodipodi:ry="4.5456862"
       d="m 70.205598,481.12091 a 4.5456862,4.5456862 0 1 1 -9.091372,0 4.5456862,4.5456862 0 1 1 9.091372,0 z" />
    <path
       transform="matrix(2.2222223,0,0,2.2222223,107.8899,-589.2994)"
       sodipodi:type="arc"
       style="fill:#b3b3b3"
       id="path2989-9-35-0"
       sodipodi:cx="65.659912"
       sodipodi:cy="481.12091"
       sodipodi:rx="4.5456862"
       sodipodi:ry="4.5456862"
       d="m 70.205598,481.12091 a 4.5456862,4.5456862 0 1 1 -9.091372,0 4.5456862,4.5456862 0 1 1 9.091372,0 z" />
    <path
       style="fill:none;stroke:#cca900;stroke-width:10;stroke-linecap:butt;stroke-linejoin:miter;stroke-miterlimit:4;stroke-opacity:1;stroke-dasharray:none"
       d="m 350.01786,395.25795 59.599,0 0,88.38834 0,-88.38834 75.76144,0.50508 0,20.70812 -51.01271,0 0,17.67767 50.00256,0 0,21.21321 -48.9924,0 0,21.71828 48.9924,0 0,50.50762"
       id="path3070"
       inkscape:connector-curvature="0"
       sodipodi:nodetypes="cccccccccccccc" />
    <rect
       style="fill:#000000;stroke:#cca900;stroke-width:0;stroke-miterlimit:4;stroke-opacity:1;stroke-dasharray:none"
       id="rect3842"
       width="61.114231"
       height="53.033009"
       x="313.65237"
       y="420.51175" />
    <rect
       style="fill:#999999;stroke:#cca900;stroke-width:0;stroke-miterlimit:4;stroke-opacity:1;stroke-dasharray:none"
       id="rect3864"
       width="51.51778"
       height="3.5355339"
       x="335.87573"
       y="494.2529" />
    <rect
       style="fill:#999999;stroke:#cca900;stroke-width:0;stroke-miterlimit:4;stroke-opacity:1;stroke-dasharray:none"
       id="rect3864-3"
       width="51.51778"
       height="3.5355339"
       x="335.37064"
       y="505.11203" />
    <rect
       style="fill:#999999;stroke:#cca900;stroke-width:0;stroke-miterlimit:4;stroke-opacity:1;stroke-dasharray:none"
       id="rect3864-0"
       width="51.51778"
       height="3.5355339"
       x="334.86557"
       y="516.72882" />
    <rect
       style="fill:#999999;stroke:#cca900;stroke-width:0;stroke-miterlimit:4;stroke-opacity:1;stroke-dasharray:none"
       id="rect3864-2"
       width="51.51778"
       height="3.5355339"
       x="335.37067"
       y="528.85065" />
    <rect
       y="488.69702"
       x="341.68408"
       height="51.012703"
       width="39.901028"
       id="rect3898"
       style="fill:#000000;stroke:#cca900;stroke-width:0;stroke-miterlimit:4;stroke-opacity:1;stroke-dasharray:none" />
    <rect
       style="fill:#cccccc;stroke:#cca900;stroke-width:0;stroke-miterlimit:4;stroke-opacity:1;stroke-dasharray:none"
       id="rect3961"
       width="15.152288"
       height="23.233509"
       x="381.33258"
       y="455.36203" />
  </g>
</svg>
