<?xml version='1.0' encoding='UTF-8' standalone='no'?>
<!-- Created with Fritzing (http://www.fritzing.org/) -->
<svg xmlns:svg='http://www.w3.org/2000/svg' xmlns='http://www.w3.org/2000/svg' version='1.2' baseProfile='tiny' x='0in' y='0in' width='2.77765in' height='1.28889in' viewBox='0 0 199.991 92.8' >
<g partID='61200'><g transform='translate(103.191,21.2)' ><g  id="breadboard" stroke-width="0">
 <g  id="icon" stroke-width="0">
  <path  stroke="none" d="M0,0L75.6,0L75.6,43.2L0,43.2L0,0M59.9244,27.8362a1.27559,1.27559,0,1,0,2.55118,0,1.27559,1.27559,0,1,0,-2.55118,0zM59.9244,15.3638a1.27559,1.27559,0,1,0,2.55118,0,1.27559,1.27559,0,1,0,-2.55118,0zM5.76,39.6a1.44,1.44,0,1,0,2.88,0,1.44,1.44,0,1,0,-2.88,0zM5.76,32.4a1.44,1.44,0,1,0,2.88,0,1.44,1.44,0,1,0,-2.88,0zM5.76,25.2a1.44,1.44,0,1,0,2.88,0,1.44,1.44,0,1,0,-2.88,0zM5.76,18a1.44,1.44,0,1,0,2.88,0,1.44,1.44,0,1,0,-2.88,0zM5.76,10.8a1.44,1.44,0,1,0,2.88,0,1.44,1.44,0,1,0,-2.88,0zM5.76,3.6a1.44,1.44,0,1,0,2.88,0,1.44,1.44,0,1,0,-2.88,0z" fill="#672E58" stroke-width="0"/>
  <g  stroke-width="0">
   <title >layer 21</title>
   <g  stroke-width="0">
    <title >text:VCC</title>
    <g transform="matrix(1, 0, 0, 1, 13.32, 20.88)">
     <g  stroke-width="0">
      <g transform="rotate(-90)">
       <g  stroke-width="0">
        <text  y="0" stroke="none" text-anchor="start" font-family="OCRA" font-size="2.67264" fill="#ffffff" stroke-width="0" x="0">VCC</text>
       </g>
      </g>
     </g>
    </g>
   </g>
   <g  stroke-width="0">
    <title >text:TXO</title>
    <g transform="matrix(1, 0, 0, 1, 13.32, 28.08)">
     <g  stroke-width="0">
      <g transform="rotate(-90)">
       <g  stroke-width="0">
        <text  y="0" stroke="none" text-anchor="start" font-family="OCRA" font-size="2.67264" fill="#ffffff" stroke-width="0" x="0">TXO</text>
       </g>
      </g>
     </g>
    </g>
   </g>
   <g  stroke-width="0">
    <title >text:RXI</title>
    <g transform="matrix(1, 0, 0, 1, 13.32, 35.28)">
     <g  stroke-width="0">
      <g transform="rotate(-90)">
       <g  stroke-width="0">
        <text  y="0" stroke="none" text-anchor="start" font-family="OCRA" font-size="2.67264" fill="#ffffff" stroke-width="0" x="0">RXI</text>
       </g>
      </g>
     </g>
    </g>
   </g>
   <g  stroke-width="0">
    <title >text:GND</title>
    <g transform="matrix(1, 0, 0, 1, 13.32, 6.84)">
     <g  stroke-width="0">
      <g transform="rotate(-90)">
       <g  stroke-width="0">
        <text  y="0" stroke="none" text-anchor="start" font-family="OCRA" font-size="2.67264" fill="#ffffff" stroke-width="0" x="0">GND</text>
       </g>
      </g>
     </g>
    </g>
   </g>
   <g  stroke-width="0">
    <title >text:FTDI Basic</title>
    <text  y="4.32" stroke="none" text-anchor="start" font-family="OCRA" font-size="3.3408" fill="#ffffff" stroke-width="0" x="46.8">FTDI Basic</text>
   </g>
   <g  stroke-width="0">
    <title >text:DTR</title>
    <g transform="matrix(1, 0, 0, 1, 13.32, 42.48)">
     <g  stroke-width="0">
      <g transform="rotate(-90)">
       <g  stroke-width="0">
        <text  y="0" stroke="none" text-anchor="start" font-family="OCRA" font-size="2.67264" fill="#ffffff" stroke-width="0" x="0">DTR</text>
       </g>
      </g>
     </g>
    </g>
   </g>
   <g  stroke-width="0">
    <title >text:RX</title>
    <text  y="8.64" stroke="none" text-anchor="start" font-family="OCRA" font-size="3.3408" fill="#ffffff" stroke-width="0" x="29.88">RX</text>
   </g>
   <g  stroke-width="0">
    <title >text:TX</title>
    <text  y="8.64" stroke="none" text-anchor="start" font-family="OCRA" font-size="3.3408" fill="#ffffff" stroke-width="0" x="22.68">TX</text>
   </g>
   <g  stroke-width="0">
    <title >text:CTS</title>
    <g transform="matrix(1, 0, 0, 1, 13.32, 13.68)">
     <g  stroke-width="0">
      <g transform="rotate(-90)">
       <g  stroke-width="0">
        <text  y="0" stroke="none" text-anchor="start" font-family="OCRA" font-size="2.67264" fill="#ffffff" stroke-width="0" x="0">CTS</text>
       </g>
      </g>
     </g>
    </g>
   </g>
   <g  stroke-width="0">
    <title >text:BLK</title>
    <g transform="matrix(1, 0, 0, 1, 3.6, 6.84)">
     <g  stroke-width="0">
      <g transform="rotate(-90)">
       <g  stroke-width="0">
        <text  y="0" stroke="none" text-anchor="start" font-family="OCRA" font-size="2.67264" fill="#ffffff" stroke-width="0" x="0">BLK</text>
       </g>
      </g>
     </g>
    </g>
   </g>
   <g  stroke-width="0">
    <title >text:GRN</title>
    <g transform="matrix(1, 0, 0, 1, 3.6, 42.48)">
     <g  stroke-width="0">
      <g transform="rotate(-90)">
       <g  stroke-width="0">
        <text  y="0" stroke="none" text-anchor="start" font-family="OCRA" font-size="2.67264" fill="#ffffff" stroke-width="0" x="0">GRN</text>
       </g>
      </g>
     </g>
    </g>
   </g>
   <g  stroke-width="0">
    <title >element:C1</title>
    <g  stroke-width="0">
     <title >package:C0402</title>
    </g>
   </g>
   <g  stroke-width="0">
    <title >element:C2</title>
    <g  stroke-width="0">
     <title >package:C0402</title>
    </g>
   </g>
   <g  stroke-width="0">
    <title >element:C5</title>
    <g  stroke-width="0">
     <title >package:EIA3216</title>
     <line  y2="41.9216" stroke="white" stroke-linecap="round" x1="39.2854" y1="41.9216" x2="35.0334" stroke-width="0.576"/>
     <line  y2="35.1184" stroke="white" stroke-linecap="round" x1="35.0334" y1="41.9216" x2="35.0334" stroke-width="0.576"/>
     <line  y2="35.1184" stroke="white" stroke-linecap="round" x1="35.0334" y1="35.1184" x2="39.2854" stroke-width="0.576"/>
     <line  y2="41.9216" stroke="white" stroke-linecap="round" x1="44.9546" y1="41.9216" x2="48.0727" stroke-width="0.576"/>
     <line  y2="40.7877" stroke="white" stroke-linecap="round" x1="48.0727" y1="41.9216" x2="49.2066" stroke-width="0.576"/>
     <line  y2="36.2523" stroke="white" stroke-linecap="round" x1="49.2066" y1="40.7877" x2="49.2066" stroke-width="0.576"/>
     <line  y2="35.1184" stroke="white" stroke-linecap="round" x1="49.2066" y1="36.2523" x2="48.0727" stroke-width="0.576"/>
     <line  y2="35.1184" stroke="white" stroke-linecap="round" x1="48.0727" y1="35.1184" x2="44.9546" stroke-width="0.576"/>
    </g>
   </g>
   <g  stroke-width="0">
    <title >element:JP1</title>
    <g  stroke-width="0">
     <title >package:1X06</title>
    </g>
   </g>
   <g  stroke-width="0">
    <title >element:LED1</title>
    <g  stroke-width="0">
     <title >package:LED-0603</title>
     <line  y2="3.6" stroke="white" stroke-linecap="round" x1="25.6819" y1="4.90393" x2="25.6819" stroke-width="0.576"/>
     <line  y2="3.6" stroke="white" stroke-linecap="round" x1="25.6819" y1="2.29607" x2="25.6819" stroke-width="0.576"/>
     <line  y2="4.47874" stroke="white" stroke-linecap="round" x1="25.6819" y1="3.6" x2="24.8031" stroke-width="0.576"/>
     <line  y2="2.69292" stroke="white" stroke-linecap="round" x1="25.7103" y1="3.6" x2="24.8031" stroke-width="0.576"/>
     <line  y2="4.47874" stroke="white" stroke-linecap="round" x1="24.8031" y1="2.69292" x2="24.8031" stroke-width="0.576"/>
    </g>
   </g>
   <g  stroke-width="0">
    <title >element:LED2</title>
    <g  stroke-width="0">
     <title >package:LED-0603</title>
     <line  y2="3.6" stroke="white" stroke-linecap="round" x1="31.9181" y1="2.29607" x2="31.9181" stroke-width="0.576"/>
     <line  y2="3.6" stroke="white" stroke-linecap="round" x1="31.9181" y1="4.90393" x2="31.9181" stroke-width="0.576"/>
     <line  y2="2.72126" stroke="white" stroke-linecap="round" x1="31.9181" y1="3.6" x2="32.7969" stroke-width="0.576"/>
     <line  y2="4.50708" stroke="white" stroke-linecap="round" x1="31.8897" y1="3.6" x2="32.7969" stroke-width="0.576"/>
     <line  y2="2.72126" stroke="white" stroke-linecap="round" x1="32.7969" y1="4.50708" x2="32.7969" stroke-width="0.576"/>
    </g>
   </g>
   <g  stroke-width="0">
    <title >element:R1</title>
    <g  stroke-width="0">
     <title >package:C0402</title>
    </g>
   </g>
   <g  stroke-width="0">
    <title >element:R2</title>
    <g  stroke-width="0">
     <title >package:C0402</title>
    </g>
   </g>
   <g  stroke-width="0">
    <title >element:SJ1</title>
    <g  stroke-width="0">
     <title >package:SJ_2S-NOTRACE</title>
     <line  y2="35.3254" stroke="white" stroke-linecap="round" x1="21.8523" y1="35.3254" x2="26.3877" stroke-width="0.576"/>
     <path  stroke="white" d="M21.2854,40.1442A0.722268,0.722268,0,0,0,21.8523,40.9946" fill="none" stroke-width="0.576"/>
     <path  stroke="white" d="M26.3877,40.9946A0.722549,0.722549,0,0,0,26.9546,40.1442" fill="none" stroke-width="0.576"/>
     <path  stroke="white" d="M26.9546,36.1758A0.722549,0.722549,0,0,0,26.3877,35.3254" fill="none" stroke-width="0.576"/>
     <path  stroke="white" d="M21.8523,35.3254A0.722268,0.722268,0,0,0,21.2854,36.1758" fill="none" stroke-width="0.576"/>
     <line  y2="40.9946" stroke="white" stroke-linecap="round" x1="26.3877" y1="40.9946" x2="21.8523" stroke-width="0.576"/>
    </g>
   </g>
   <g  stroke-width="0">
    <title >element:U$2</title>
    <g  stroke-width="0">
     <title >package:SFE-NEW-WEBLOGO</title>
    </g>
   </g>
   <g  stroke-width="0">
    <title >element:U$6</title>
    <g  stroke-width="0">
     <title >package:FIDUCIAL-1X2</title>
    </g>
   </g>
   <g  stroke-width="0">
    <title >element:U$7</title>
    <g  stroke-width="0">
     <title >package:FIDUCIAL-1X2</title>
    </g>
   </g>
   <g  stroke-width="0">
    <title >element:U1</title>
    <g  stroke-width="0">
     <title >package:SSOP28DB</title>
     <line  y2="13.3087" stroke="white" stroke-linecap="round" x1="17.6599" y1="13.3087" x2="47.1401" stroke-width="0.432"/>
     <line  y2="29.8913" stroke="white" stroke-linecap="round" x1="47.1401" y1="13.3087" x2="47.1401" stroke-width="0.432"/>
     <line  y2="29.8913" stroke="white" stroke-linecap="round" x1="47.1401" y1="29.8913" x2="17.6599" stroke-width="0.432"/>
     <line  y2="13.3087" stroke="white" stroke-linecap="round" x1="17.6599" y1="29.8913" x2="17.6599" stroke-width="0.432"/>
     <circle  cy="27.1276" stroke="white" cx="20.4236" fill="none" stroke-width="0.432" r="1.3028"/>
    </g>
   </g>
   <g  stroke-width="0">
    <title >element:X2</title>
    <g  stroke-width="0">
     <title >package:USB-MINIB</title>
     <line  y2="32.3716" stroke="white" stroke-linecap="round" x1="64.885" y1="32.3716" x2="58.9323" stroke-width="0.576"/>
     <line  y2="27.8362" stroke="white" stroke-linecap="round" x1="51.8457" y1="30.3874" x2="51.8457" stroke-width="0.576"/>
     <line  y2="12.8126" stroke="white" stroke-linecap="round" x1="51.8457" y1="15.3638" x2="51.8457" stroke-width="0.576"/>
     <line  y2="10.8284" stroke="white" stroke-linecap="round" x1="58.9323" y1="10.8284" x2="64.885" stroke-width="0.576"/>
    </g>
   </g>
  </g>
  <rect  width="14.1732" y="35.1184" height="6.80315" stroke="none" fill="#333333" stroke-width="0" x="35.0334" fill-opacity="1"/>
  <rect  width="0.907085" y="2.29607" height="2.60788" stroke="none" fill="#ffffff" stroke-width="0" x="24.8031" fill-opacity="0.15"/>
  <rect  width="0.907085" y="2.29607" height="2.60788" stroke="none" fill="#ffffff" stroke-width="0" x="31.8897" fill-opacity="0.15"/>
  <rect  width="5.69764" y="35.3254" height="5.66929" stroke="none" fill="#ffffff" stroke-width="0" x="21.2712" fill-opacity="0.15"/>
  <rect  width="29.4803" y="13.3087" height="16.5827" stroke="none" fill="#333333" stroke-width="0" x="17.6599" fill-opacity="1"/>
  <circle  cy="39.6" stroke="#9A916C" id="connector6pin" cx="7.2" fill="none" connectorname="DTR" stroke-width="0.864" r="1.872"/>
  <circle  cy="32.4" stroke="#9A916C" id="connector7pin" cx="7.2" fill="none" connectorname="RXI" stroke-width="0.864" r="1.872"/>
  <circle  cy="25.2" stroke="#9A916C" id="connector8pin" cx="7.2" fill="none" connectorname="TXO" stroke-width="0.864" r="1.872"/>
  <circle  cy="18" stroke="#9A916C" id="connector9pin" cx="7.2" fill="none" connectorname="POWER" stroke-width="0.864" r="1.872"/>
  <circle  cy="10.8" stroke="#9A916C" id="connector10pin" cx="7.2" fill="none" connectorname="CTS" stroke-width="0.864" r="1.872"/>
  <circle  cy="3.6" stroke="#9A916C" id="connector11pin" cx="7.2" fill="none" connectorname="GND" stroke-width="0.864" r="1.872"/>
 </g>
 <g transform="matrix(1, 0, 0, 1, -14.0247, 17.9921)">
  <g  id="1x06" stroke-width="0">
   <g transform="matrix(0, 1, -1, 0, 25.2, -18)">
    <g  stroke-width="0">
     <rect  width="43.2" y="0" height="7.199" fill="#404040" stroke-width="0" x="0"/>
     <rect  width="2.781" y="2.209" height="2.782" stroke-width="0" x="2.21"/>
     <polygon  points="1.185,1.184,2.208,2.209,4.992,2.209,6.017,1.184" fill="#2A2A29" stroke-width="0"/>
     <polygon  points="6.017,1.184,4.992,2.212,4.992,4.993,6.017,6.016" fill="#474747" stroke-width="0"/>
     <polygon  points="6.016,6.016,4.991,4.993,2.208,4.993,1.185,6.016" fill="#595959" stroke-width="0"/>
     <polygon  points="1.183,6.016,2.208,4.991,2.208,2.209,1.183,1.184" fill="#373737" stroke-width="0"/>
     <rect  width="2.781" y="2.209" height="2.782" stroke-width="0" x="9.41098"/>
     <polygon  points="8.38397,1.184,9.40802,2.209,12.191,2.209,13.216,1.184" fill="#2A2A29" stroke-width="0"/>
     <polygon  points="13.216,1.184,12.191,2.212,12.191,4.993,13.216,6.016" fill="#474747" stroke-width="0"/>
     <polygon  points="13.215,6.016,12.19,4.993,9.40802,4.993,8.38397,6.016" fill="#595959" stroke-width="0"/>
     <polygon  points="8.38202,6.016,9.40802,4.991,9.40802,2.209,8.38202,1.184" fill="#373737" stroke-width="0"/>
     <rect  width="2.781" y="2.209" height="2.782" stroke-width="0" x="16.61"/>
     <polygon  points="15.584,1.184,16.608,2.209,19.392,2.209,20.417,1.184" fill="#2A2A29" stroke-width="0"/>
     <polygon  points="20.417,1.184,19.392,2.212,19.392,4.993,20.417,6.016" fill="#474747" stroke-width="0"/>
     <polygon  points="20.416,6.016,19.391,4.993,16.608,4.993,15.584,6.016" fill="#595959" stroke-width="0"/>
     <polygon  points="15.583,6.016,16.608,4.991,16.608,2.209,15.583,1.184" fill="#373737" stroke-width="0"/>
     <rect  width="2.781" y="2.209" height="2.782" stroke-width="0" x="23.811"/>
     <polygon  points="22.785,1.184,23.809,2.209,26.592,2.209,27.617,1.184" fill="#2A2A29" stroke-width="0"/>
     <polygon  points="27.617,1.184,26.592,2.212,26.592,4.993,27.617,6.016" fill="#474747" stroke-width="0"/>
     <polygon  points="27.616,6.016,26.59,4.993,23.809,4.993,22.785,6.016" fill="#595959" stroke-width="0"/>
     <polygon  points="22.782,6.016,23.809,4.991,23.809,2.209,22.782,1.184" fill="#373737" stroke-width="0"/>
     <rect  width="2.781" y="2.209" height="2.782" stroke-width="0" x="31.01"/>
     <polygon  points="29.985,1.184,31.008,2.209,33.792,2.209,34.817,1.184" fill="#2A2A29" stroke-width="0"/>
     <polygon  points="34.817,1.184,33.792,2.212,33.792,4.993,34.817,6.016" fill="#474747" stroke-width="0"/>
     <polygon  points="34.815,6.016,33.791,4.993,31.008,4.993,29.985,6.016" fill="#595959" stroke-width="0"/>
     <polygon  points="29.983,6.016,31.008,4.991,31.008,2.209,29.983,1.184" fill="#373737" stroke-width="0"/>
     <rect  width="2.781" y="2.209" height="2.782" stroke-width="0" x="38.21"/>
     <polygon  points="37.184,1.184,38.208,2.209,40.992,2.209,42.016,1.184" fill="#2A2A29" stroke-width="0"/>
     <polygon  points="42.016,1.184,40.992,2.212,40.992,4.993,42.016,6.016" fill="#474747" stroke-width="0"/>
     <polygon  points="42.016,6.016,40.991,4.993,38.208,4.993,37.184,6.016" fill="#595959" stroke-width="0"/>
     <polygon  points="37.182,6.016,38.208,4.991,38.208,2.209,37.182,1.184" fill="#373737" stroke-width="0"/>
    </g>
   </g>
  </g>
 </g>
 <g transform="matrix(1, 0, 0, 1, 48.814, 4.58334)">
  <g  id="usb-minib" stroke-width="0">
   <g transform="matrix(-1, 0, 0, -1, 30.888, 34.056)">
    <g  stroke-width="0">
     <g  stroke-width="0">
      <rect  width="6.2538" y="1.21596" height="6.59281" fill="#8D8C8C" stroke-width="0" x="21.7973"/>
      <rect  width="7.2378" y="1.21596" height="6.59281" fill="#8D8C8C" stroke-width="0" x="8.70775"/>
     </g>
     <g  stroke-width="0">
      <rect  width="6.2538" y="26.2493" height="6.5948" fill="#8D8C8C" stroke-width="0" x="21.7973"/>
      <rect  width="7.2378" y="26.2493" height="6.5948" fill="#8D8C8C" stroke-width="0" x="8.70775"/>
     </g>
     <g  stroke-width="0">
      <polygon  points="25.4642,21.2304,26.5501,20.4054,26.5501,26.6742,27.5041,26.6742,27.5041,7.32478,26.5501,7.32478,26.5501,13.6496,25.4642,12.8226,25.4642,6.35181,2.83891,6.35181,2.83891,27.7002,25.4642,27.7002" fill="#404040" stroke-width="0"/>
     </g>
     <path  d="M16.5154,12.4816c0,0.155995,-0.126996,0.270992,-0.280991,0.254992L5.73882,11.6407c-0.153995,-0.0169995,-0.280991,-0.153996,-0.280991,-0.311991L5.45782,9.58572c0,-0.153996,0.126996,-0.296991,0.280991,-0.311991l10.4957,-1.09896c0.153995,-0.0179995,0.280991,0.100997,0.280991,0.253992l0,0.255992c0,0.152996,-0.126996,0.295991,-0.280991,0.309991l-9.54166,0.829973c-0.153995,0.0109997,-0.280991,0.150996,-0.280991,0.307991l0,0.648981c0,0.153996,0.126996,0.294991,0.280991,0.309991l9.54166,0.828979c0.153995,0.0129996,0.280991,0.150996,0.280991,0.309991L16.5154,12.4816z" stroke-width="0"/>
     <path  d="M16.5154,25.6242c0,0.151996,-0.126996,0.270992,-0.280991,0.254992L5.73782,24.7783c-0.153995,-0.0209994,-0.280991,-0.153996,-0.280991,-0.311991l0,-1.74195c0,-0.154995,0.126996,-0.296991,0.280991,-0.311991l10.4967,-1.09896c0.153995,-0.0189994,0.280991,0.0999972,0.280991,0.253992l0,0.256992c0,0.154995,-0.126996,0.294991,-0.280991,0.311991l-9.54166,0.827978c-0.153995,0.0139996,-0.280991,0.146996,-0.280991,0.310991l0,0.645981c0,0.150996,0.126996,0.296991,0.280991,0.311991l9.54166,0.824976c0.153995,0.0189994,0.280991,0.145996,0.280991,0.311991L16.5154,25.6242z" stroke-width="0"/>
     <g  stroke-width="0">
      <polygon  points="6.41779,22.9864,6.41779,24.2043,7.24579,24.2753,7.24579,22.9224" fill="none" stroke-width="0"/>
      <polygon  points="7.24579,24.2753,6.41779,24.2043,6.41779,22.9864,7.24579,22.9224" fill="#939393" stroke-width="0"/>
      <polygon  points="7.24579,24.2753,7.59478,24.3073,7.59478,22.8843,7.24579,22.9224" fill="#545454" stroke-width="0"/>
     </g>
     <g  stroke-width="0">
      <polygon  points="6.41779,9.8437,6.41779,11.0667,7.24579,11.1347,7.24579,9.77969" fill="none" stroke-width="0"/>
      <polygon  points="7.24579,11.1347,6.41779,11.0667,6.41779,9.8437,7.24579,9.77969" fill="#939393" stroke-width="0"/>
      <polygon  points="7.24579,11.1347,7.59478,11.1696,7.59478,9.74268,7.24579,9.77969" fill="#545454" stroke-width="0"/>
     </g>
     <rect  width="2.01393" y="14.1196" height="5.55484" fill="#939393" stroke-width="0" x="12.9726"/>
     <rect  width="1.11496" y="14.1196" height="5.55484" fill="#545454" stroke-width="0" x="14.9855"/>
     <path  d="M4.50186,13.7836c0,0.154995,0.126996,0.292991,0.281991,0.300991l11.6056,0.69898c0.153995,0.00999972,0.281991,0.145996,0.281991,0.300991l0,3.88889c0,0.154995,-0.127996,0.290992,-0.281991,0.304991L4.78385,19.9684c-0.154995,0.00899971,-0.281991,0.145996,-0.281991,0.301991l0,0.518985c0,0.154995,0.126996,0.270992,0.281991,0.266992l13.1926,-0.959969c0.153995,-0.0159996,0.282991,-0.145996,0.282991,-0.308991l0,-5.51884c0,-0.154995,-0.128996,-0.294991,-0.282991,-0.308991L4.78284,13.0036c-0.153995,-0.0109997,-0.281991,0.107997,-0.281991,0.262992L4.50186,13.7836L4.50186,13.7836z" stroke-width="0"/>
     <line  y2="6.9828" stroke="#FFFFFF" stroke-linecap="round" stroke-opacity="0.24" x1="24.8682" y1="6.9828" x2="3.1509" fill="none" stroke-width="0"/>
     <line  y2="27.3262" stroke="#FFFFFF" stroke-linecap="round" stroke-opacity="0.15" x1="24.8682" y1="27.3262" x2="3.1509" fill="none" stroke-width="0.499984"/>
     <line  y2="19.7194" stroke="#FFFFFF" stroke-linecap="round" stroke-opacity="0.3" x1="26.4381" y1="14.3306" x2="26.4381" fill="none" stroke-width="0"/>
    </g>
   </g>
  </g>
 </g>
</g>
</g></g><g partID='61380'><line stroke-linecap='round' stroke='#00a527' x1='67.3062' y1='60.8' x2='110.391' y2='46.4' stroke-width='3.2' /><line stroke-linecap='round' stroke='#25cc35' x1='67.3062' y1='60.8' x2='110.391' y2='46.4' stroke-width='1.6' /></g><g partID='63010'><line stroke-linecap='round' stroke='#d6d63a' x1='196.791' y1='3.2' x2='59.991' y2='3.2' stroke-width='3.2' /><line stroke-linecap='round' stroke='#fff800' x1='196.791' y1='3.2' x2='59.991' y2='3.2' stroke-width='1.6' /></g><g partID='61930'><line stroke-linecap='round' stroke='#d6d63a' x1='110.391' y1='53.6' x2='88.791' y2='60.8' stroke-width='3.2' /><line stroke-linecap='round' stroke='#fff800' x1='110.391' y1='53.6' x2='88.791' y2='60.8' stroke-width='1.6' /></g><g partID='63080'><line stroke-linecap='round' stroke='#d6d63a' x1='196.791' y1='75.2' x2='196.791' y2='3.2' stroke-width='3.2' /><line stroke-linecap='round' stroke='#fff800' x1='196.791' y1='75.2' x2='196.791' y2='3.2' stroke-width='1.6' /></g><g partID='62150'><line stroke-linecap='round' stroke='#d6d63a' x1='59.991' y1='3.2' x2='59.991' y2='38.991' stroke-width='3.2' /><line stroke-linecap='round' stroke='#fff800' x1='59.991' y1='3.2' x2='59.991' y2='38.991' stroke-width='1.6' /></g><g partID='63150'><line stroke-linecap='round' stroke='#d6d63a' x1='88.791' y1='75.2' x2='196.791' y2='75.2' stroke-width='3.2' /><line stroke-linecap='round' stroke='#fff800' x1='88.791' y1='75.2' x2='196.791' y2='75.2' stroke-width='1.6' /></g><g partID='63220'><line stroke-linecap='round' stroke='#d6d63a' x1='88.791' y1='60.8' x2='88.791' y2='75.2' stroke-width='3.2' /><line stroke-linecap='round' stroke='#fff800' x1='88.791' y1='60.8' x2='88.791' y2='75.2' stroke-width='1.6' /></g><g partID='62670'><line stroke-linecap='round' stroke='#8c0000' x1='67.3062' y1='38.991' x2='67.3062' y2='53.498' stroke-width='3.2' /><line stroke-linecap='round' stroke='#cc1414' x1='67.3062' y1='38.991' x2='67.3062' y2='53.498' stroke-width='1.6' /></g><g partID='63540'><line stroke-linecap='round' stroke='#8c0000' x1='67.3062' y1='38.991' x2='110.391' y2='39.2' stroke-width='3.2' /><line stroke-linecap='round' stroke='#cc1414' x1='67.3062' y1='38.991' x2='110.391' y2='39.2' stroke-width='1.6' /></g><g partID='64320'><line stroke-linecap='round' stroke='#000000' x1='81.591' y1='89.6' x2='81.591' y2='24.8' stroke-width='3.2' /><line stroke-linecap='round' stroke='#404040' x1='81.591' y1='89.6' x2='81.591' y2='24.8' stroke-width='1.6' /></g><g partID='64100'><line stroke-linecap='round' stroke='#000000' x1='59.991' y1='60.8' x2='59.991' y2='89.6' stroke-width='3.2' /><line stroke-linecap='round' stroke='#404040' x1='59.991' y1='60.8' x2='59.991' y2='89.6' stroke-width='1.6' /></g><g partID='64430'><line stroke-linecap='round' stroke='#000000' x1='59.991' y1='89.6' x2='81.591' y2='89.6' stroke-width='3.2' /><line stroke-linecap='round' stroke='#404040' x1='59.991' y1='89.6' x2='81.591' y2='89.6' stroke-width='1.6' /></g><g partID='64210'><line stroke-linecap='round' stroke='#000000' x1='81.591' y1='24.8' x2='110.391' y2='24.8' stroke-width='3.2' /><line stroke-linecap='round' stroke='#404040' x1='81.591' y1='24.8' x2='110.391' y2='24.8' stroke-width='1.6' /></g></svg>